<svg width="1369" height="514" viewBox="0 0 1369 514" fill="none" xmlns="http://www.w3.org/2000/svg">
<rect width="1369" height="514" fill="#1C2541"/>
<path d="M1269 388.341H773V388.589H1269V388.341Z" fill="#EBEBEB"/>
<path d="M1219.3 404.302H1186.45V404.55H1219.3V404.302Z" fill="#EBEBEB"/>
<path d="M1072.03 404.431H1063.41V404.679H1072.03V404.431Z" fill="#EBEBEB"/>
<path d="M1185.44 395.096H1124.5V395.344H1185.44V395.096Z" fill="#EBEBEB"/>
<path d="M996.339 400.949H983.75V401.197H996.339V400.949Z" fill="#EBEBEB"/>
<path d="M974.922 400.949H938.386V401.197H974.922V400.949Z" fill="#EBEBEB"/>
<path d="M850.267 396.763H825.04V397.011H850.267V396.763Z" fill="#EBEBEB"/>
<path d="M930.51 396.763H856.219V397.011H930.51V396.763Z" fill="#EBEBEB"/>
<path d="M1008.1 344.098H816.559C815.058 344.095 813.62 343.497 812.56 342.435C811.5 341.373 810.904 339.934 810.904 338.433V69.1747C810.917 67.6828 811.519 66.2562 812.577 65.205C813.636 64.1537 815.067 63.5626 816.559 63.56H1008.1C1009.61 63.56 1011.05 64.1568 1012.11 65.219C1013.17 66.2813 1013.77 67.722 1013.77 69.2243V338.433C1013.77 339.936 1013.17 341.376 1012.11 342.439C1011.05 343.501 1009.61 344.098 1008.1 344.098V344.098ZM816.559 63.7584C815.124 63.761 813.749 64.3328 812.735 65.3483C811.722 66.3638 811.152 67.7399 811.152 69.1747V338.433C811.152 339.868 811.722 341.244 812.735 342.26C813.749 343.275 815.124 343.847 816.559 343.85H1008.1C1009.54 343.847 1010.92 343.275 1011.93 342.26C1012.95 341.245 1013.52 339.869 1013.52 338.433V69.1747C1013.52 67.739 1012.95 66.3629 1011.93 65.3477C1010.92 64.3325 1009.54 63.761 1008.1 63.7584H816.559Z" fill="#EBEBEB"/>
<path d="M1222.68 344.098H1031.13C1029.63 344.095 1028.19 343.497 1027.13 342.436C1026.06 341.374 1025.47 339.935 1025.46 338.433V69.1747C1025.48 67.6819 1026.08 66.2553 1027.14 65.2043C1028.2 64.1533 1029.64 63.5625 1031.13 63.56H1222.68C1224.17 63.5652 1225.6 64.1574 1226.66 65.2084C1227.72 66.2594 1228.32 67.6845 1228.33 69.1747V338.433C1228.33 339.932 1227.73 341.37 1226.68 342.432C1225.62 343.493 1224.18 344.092 1222.68 344.098V344.098ZM1031.13 63.7584C1029.69 63.761 1028.32 64.3325 1027.3 65.3477C1026.29 66.3629 1025.71 67.739 1025.71 69.1747V338.433C1025.71 339.869 1026.29 341.245 1027.3 342.26C1028.32 343.275 1029.69 343.847 1031.13 343.85H1222.68C1224.12 343.847 1225.5 343.275 1226.51 342.26C1227.53 341.245 1228.1 339.869 1228.1 338.433V69.1747C1228.1 67.739 1227.53 66.3629 1226.51 65.3477C1225.5 64.3325 1224.12 63.761 1222.68 63.7584H1031.13Z" fill="#EBEBEB"/>
<path d="M844.563 282.018H979.177V93.7565L844.563 93.7565V282.018Z" fill="#E6E6E6"/>
<path d="M841.577 282.018H976.191V93.7565L841.577 93.7565V282.018Z" fill="#F5F5F5"/>
<path d="M970.815 275.987V99.7878L846.944 99.7878V275.987H970.815Z" fill="white"/>
<path d="M849.205 275.987V99.7878H846.944V275.987H849.205Z" fill="#E6E6E6"/>
<path d="M843.799 166.936L973.969 166.936V158.842L843.799 158.842V166.936Z" fill="#F5F5F5"/>
<path d="M835.714 83.767H985.03C985.249 83.7697 985.459 83.8586 985.613 84.0146C985.767 84.1706 985.853 84.381 985.853 84.6003V84.6003C985.853 84.8187 985.767 85.0281 985.612 85.1825C985.458 85.3369 985.248 85.4237 985.03 85.4237H835.714C835.496 85.4237 835.286 85.3369 835.132 85.1825C834.978 85.0281 834.891 84.8187 834.891 84.6003V84.6003C834.891 84.381 834.977 84.1706 835.131 84.0146C835.286 83.8586 835.495 83.7697 835.714 83.767V83.767Z" fill="#E6E6E6"/>
<path d="M830.754 84.6003C830.762 85.4167 831.011 86.2126 831.471 86.8876C831.93 87.5626 832.579 88.0867 833.335 88.3937C834.092 88.7007 834.922 88.777 835.722 88.6129C836.522 88.4488 837.255 88.0518 837.83 87.4717C838.404 86.8916 838.794 86.1545 838.951 85.3532C839.107 84.5518 839.023 83.7221 838.709 82.9686C838.395 82.215 837.864 81.5713 837.185 81.1185C836.506 80.6657 835.707 80.424 834.891 80.424C834.344 80.424 833.803 80.5323 833.299 80.7426C832.794 80.953 832.336 81.2613 831.952 81.6496C831.567 82.0379 831.263 82.4986 831.058 83.0051C830.852 83.5116 830.749 84.0538 830.754 84.6003Z" fill="#E6E6E6"/>
<path d="M978.056 89.2329C978.353 89.2304 978.636 89.1114 978.846 88.9018C979.056 88.6921 979.175 88.4085 979.177 88.112V85.7114C979.175 85.4158 979.055 85.1332 978.846 84.9251C978.636 84.717 978.352 84.6003 978.056 84.6003V84.6003C977.762 84.6003 977.479 84.7174 977.271 84.9257C977.062 85.1341 976.945 85.4167 976.945 85.7114V88.112C976.945 88.4076 977.062 88.6912 977.27 88.9011C977.478 89.1111 977.761 89.2303 978.056 89.2329V89.2329Z" fill="#E6E6E6"/>
<path d="M848.184 89.2329C848.48 89.2304 848.764 89.1114 848.974 88.9018C849.183 88.6921 849.302 88.4085 849.305 88.112V85.7114C849.302 85.4158 849.183 85.1332 848.973 84.9251C848.763 84.717 848.479 84.6003 848.184 84.6003C847.889 84.6003 847.607 84.7174 847.398 84.9257C847.19 85.1341 847.073 85.4167 847.073 85.7114V88.112C847.073 88.4076 847.189 88.6912 847.398 88.9011C847.606 89.1111 847.888 89.2303 848.184 89.2329Z" fill="#E6E6E6"/>
<path opacity="0.5" d="M952.78 237.487L857.161 237.487C851.544 237.487 846.157 235.256 842.185 231.284C838.214 227.312 835.982 221.925 835.982 216.308V84.6003L973.959 84.6003V216.308C973.959 221.925 971.728 227.312 967.756 231.284C963.784 235.256 958.397 237.487 952.78 237.487V237.487Z" fill="#E0E0E0"/>
<path d="M960.637 84.6003C960.645 85.4171 960.894 86.2134 961.354 86.8886C961.814 87.5639 962.463 88.0879 963.22 88.3946C963.977 88.7013 964.808 88.777 965.608 88.6121C966.408 88.4473 967.142 88.0492 967.716 87.4681C968.29 86.8871 968.679 86.149 968.834 85.3471C968.99 84.5451 968.904 83.7151 968.588 82.9617C968.273 82.2083 967.741 81.5653 967.06 81.1137C966.38 80.662 965.58 80.4221 964.763 80.424C964.217 80.424 963.677 80.5323 963.173 80.7428C962.669 80.9533 962.212 81.2617 961.828 81.6502C961.444 82.0386 961.141 82.4994 960.937 83.0058C960.732 83.5123 960.63 84.0542 960.637 84.6003V84.6003Z" fill="#E6E6E6"/>
<path d="M1181.08 95.0659H1065.93V210.525H1181.08V95.0659Z" fill="#F0F0F0"/>
<path d="M1181.08 210.525H1183.06V95.0659H1181.08V210.525Z" fill="#E0E0E0"/>
<path d="M1170.91 149.765C1170.91 123.582 1149.69 102.357 1123.5 102.357C1097.32 102.357 1076.1 123.582 1076.1 149.765V155.826C1076.1 182.008 1097.32 203.234 1123.5 203.234C1149.69 203.234 1170.91 182.008 1170.91 155.826V149.765Z" fill="white"/>
<path d="M1141.58 131.254H1105.44C1104.23 131.254 1103.26 132.231 1103.26 133.436V172.164C1103.26 173.369 1104.23 174.347 1105.44 174.347H1141.58C1142.78 174.347 1143.76 173.369 1143.76 172.164V133.436C1143.76 132.231 1142.78 131.254 1141.58 131.254Z" fill="#F5F5F5"/>
<path d="M956.391 384.492H982.957V325.577H956.391V384.492Z" fill="#F0F0F0"/>
<path d="M846.825 388.212H977.858V384.482H846.825V388.212Z" fill="#F0F0F0"/>
<path d="M956.391 325.567H841.726V384.482H956.391V325.567Z" fill="#F5F5F5"/>
<path d="M945.945 352.639H852.172C852.04 352.639 851.914 352.586 851.821 352.493C851.728 352.4 851.676 352.274 851.676 352.143V332.819C851.676 332.687 851.728 332.561 851.821 332.468C851.914 332.375 852.04 332.323 852.172 332.323H945.945C946.076 332.325 946.201 332.378 946.293 332.471C946.386 332.563 946.439 332.688 946.441 332.819V352.143C946.441 352.274 946.389 352.4 946.296 352.493C946.203 352.586 946.077 352.639 945.945 352.639ZM852.697 351.647H945.479V333.315H852.668L852.697 351.647Z" fill="#F0F0F0"/>
<path d="M945.945 377.726H852.172C852.04 377.726 851.914 377.674 851.821 377.581C851.728 377.488 851.676 377.362 851.676 377.23V357.906C851.676 357.775 851.728 357.649 851.821 357.556C851.914 357.463 852.04 357.41 852.172 357.41H945.945C946.076 357.413 946.201 357.466 946.293 357.558C946.386 357.651 946.439 357.775 946.441 357.906V377.23C946.441 377.362 946.389 377.488 946.296 377.581C946.203 377.674 946.077 377.726 945.945 377.726ZM852.697 376.734H945.479V358.402H852.668L852.697 376.734Z" fill="#F0F0F0"/>
<path d="M887.1 343.81H910.997C911.644 343.81 912.168 343.286 912.168 342.639V342.332C912.168 341.685 911.644 341.161 910.997 341.161H887.1C886.453 341.161 885.929 341.685 885.929 342.332V342.639C885.929 343.286 886.453 343.81 887.1 343.81Z" fill="white"/>
<path d="M887.1 368.888H910.997C911.644 368.888 912.168 368.364 912.168 367.717V367.41C912.168 366.763 911.644 366.239 910.997 366.239H887.1C886.453 366.239 885.929 366.763 885.929 367.41V367.717C885.929 368.364 886.453 368.888 887.1 368.888Z" fill="white"/>
<path d="M893.181 315.657C893.181 315.657 892.863 325.577 880.622 325.577C868.381 325.577 868.053 315.657 868.053 315.657H893.181Z" fill="#F5F5F5"/>
<path d="M921.8 315.657C921.8 315.657 921.473 325.577 909.231 325.577C896.99 325.577 896.673 315.657 896.673 315.657H921.8Z" fill="#F5F5F5"/>
<path d="M950.469 315.657C950.469 315.657 950.151 325.577 937.9 325.577C925.649 325.577 925.342 315.657 925.342 315.657H950.469Z" fill="#F5F5F5"/>
<path d="M1193.29 382.29H1213.34V250.84H1193.29V382.29Z" fill="#F0F0F0"/>
<path d="M1042.71 388.331H1208.05V382.29H1042.71V388.331Z" fill="#F0F0F0"/>
<path d="M1193.29 250.83H1037.43V382.28H1193.29V250.83Z" fill="#F5F5F5"/>
<path d="M1182.46 298.337H1048.26V329.604H1182.46V298.337Z" fill="#F0F0F0"/>
<path d="M1182.46 339.276H1048.26V370.544H1182.46V339.276Z" fill="#F0F0F0"/>
<path d="M1076.66 300.489H1154.07C1155.19 300.489 1156.1 299.579 1156.1 298.456V298.237C1156.1 297.114 1155.19 296.204 1154.07 296.204H1076.66C1075.54 296.204 1074.63 297.114 1074.63 298.237V298.456C1074.63 299.579 1075.54 300.489 1076.66 300.489Z" fill="#F5F5F5"/>
<path d="M1076.66 341.419H1154.07C1155.19 341.419 1156.1 340.509 1156.1 339.386V339.167C1156.1 338.044 1155.19 337.134 1154.07 337.134H1076.66C1075.54 337.134 1074.63 338.044 1074.63 339.167V339.386C1074.63 340.509 1075.54 341.419 1076.66 341.419Z" fill="#F5F5F5"/>
<path d="M1182.46 257.407H1048.26V288.675H1182.46V257.407Z" fill="#F0F0F0"/>
<path d="M1076.66 259.559H1154.07C1155.19 259.559 1156.1 258.649 1156.1 257.526V257.308C1156.1 256.184 1155.19 255.274 1154.07 255.274H1076.66C1075.54 255.274 1074.63 256.184 1074.63 257.308V257.526C1074.63 258.649 1075.54 259.559 1076.66 259.559Z" fill="#F5F5F5"/>
<path d="M1021 433.14C1127.23 433.14 1213.34 428.112 1213.34 421.91C1213.34 415.708 1127.23 410.681 1021 410.681C914.774 410.681 828.661 415.708 828.661 421.91C828.661 428.112 914.774 433.14 1021 433.14Z" fill="#F5F5F5"/>
<path d="M1058.41 111.513L1058.29 112.498L1063.5 113.088L1063.61 112.103L1058.41 111.513Z" fill="#00A8E8"/>
<path d="M1035.84 108.962L1035.73 109.948L1052.61 111.863L1052.72 110.877L1035.84 108.962Z" fill="#00A8E8"/>
<path d="M1160.91 126.644L982.434 106.404C979.766 106.101 977.359 108.019 977.056 110.686L961.631 246.7C961.329 249.368 963.246 251.775 965.913 252.078L1144.39 272.318C1147.06 272.621 1149.47 270.703 1149.77 268.036L1165.19 132.022C1165.5 129.354 1163.58 126.947 1160.91 126.644Z" fill="#00A8E8"/>
<path opacity="0.7" d="M964.238 245.096L979.227 112.872C979.28 112.405 979.425 111.953 979.653 111.542C979.882 111.131 980.189 110.77 980.558 110.478C980.927 110.187 981.35 109.972 981.802 109.844C982.255 109.717 982.728 109.681 983.195 109.738L1159.47 129.716C1159.94 129.771 1160.39 129.916 1160.8 130.145C1161.21 130.374 1161.57 130.681 1161.86 131.05C1162.16 131.419 1162.37 131.841 1162.5 132.293C1162.63 132.745 1162.66 133.218 1162.61 133.684L1147.58 265.859C1147.53 266.326 1147.38 266.779 1147.16 267.19C1146.93 267.602 1146.62 267.964 1146.25 268.256C1145.88 268.547 1145.46 268.763 1145.01 268.889C1144.55 269.016 1144.08 269.051 1143.61 268.993L967.333 249.004C966.407 248.89 965.563 248.416 964.984 247.685C964.405 246.953 964.137 246.023 964.238 245.096Z" fill="#263238"/>
<path d="M1133.09 162.304L1058.81 153.88L1058.4 157.537L1132.68 165.961L1133.09 162.304Z" fill="#00A8E8"/>
<path d="M1144.48 169.496L1065.78 160.571L1065.37 164.228L1144.06 173.153L1144.48 169.496Z" fill="#00A8E8"/>
<path d="M1130.32 173.796L1065.11 166.402L1064.7 170.059L1129.9 177.453L1130.32 173.796Z" fill="#00A8E8"/>
<path d="M1122.86 178.86L1064.45 172.237L1064.04 175.894L1122.44 182.517L1122.86 178.86Z" fill="#00A8E8"/>
<path d="M1104 186.333L1055.75 180.861L1055.33 184.517L1103.59 189.99L1104 186.333Z" fill="#00A8E8"/>
<path d="M1113.21 205.11L1061.39 199.233L1060.98 202.89L1112.8 208.766L1113.21 205.11Z" fill="#00A8E8"/>
<path d="M1104.99 198.268L1062.05 193.399L1061.64 197.056L1104.58 201.925L1104.99 198.268Z" fill="#00A8E8"/>
<path d="M1110 192.928L1062.72 187.566L1062.31 191.223L1109.59 196.585L1110 192.928Z" fill="#00A8E8"/>
<path d="M1098.96 230.827L1050.7 225.354L1050.29 229.011L1098.55 234.483L1098.96 230.827Z" fill="#00A8E8"/>
<path d="M1108.16 249.602L1056.34 243.725L1055.93 247.382L1107.75 253.258L1108.16 249.602Z" fill="#00A8E8"/>
<path d="M1099.38 241.044L1056.6 236.291L1056.2 239.934L1098.98 244.688L1099.38 241.044Z" fill="#00A8E8"/>
<path d="M1104.95 237.42L1057.67 232.058L1057.25 235.715L1104.54 241.077L1104.95 237.42Z" fill="#00A8E8"/>
<path d="M1026.69 122.676L987.498 118.232L987.083 121.889L1026.27 126.333L1026.69 122.676Z" fill="white"/>
<path d="M1033.78 141.195L991.711 136.424L991.296 140.081L1033.37 144.852L1033.78 141.195Z" fill="white"/>
<path d="M1027.23 134.552L992.37 130.599L991.955 134.256L1026.82 138.209L1027.23 134.552Z" fill="white"/>
<path d="M1031.41 129.109L993.021 124.755L992.606 128.412L1031 132.766L1031.41 129.109Z" fill="white"/>
<path d="M1111.22 222.611L1059.41 216.734L1058.99 220.391L1110.81 226.268L1111.22 222.611Z" fill="#00A8E8"/>
<path d="M1103 215.769L1060.07 210.9L1059.65 214.557L1102.59 219.426L1103 215.769Z" fill="#00A8E8"/>
<path d="M1108.01 210.429L1060.73 205.067L1060.32 208.724L1107.6 214.086L1108.01 210.429Z" fill="#00A8E8"/>
<path d="M1001.62 417.952L995.059 417.803L994.147 402.586L1000.7 402.735L1001.62 417.952Z" fill="#FFC3BD"/>
<path d="M994.821 417.039L1001.98 417.198C1002.11 417.202 1002.24 417.249 1002.34 417.332C1002.43 417.415 1002.5 417.528 1002.53 417.654L1003.7 423.517C1003.72 423.659 1003.71 423.804 1003.67 423.943C1003.63 424.081 1003.56 424.208 1003.47 424.317C1003.37 424.425 1003.26 424.512 1003.13 424.571C1002.99 424.63 1002.85 424.66 1002.71 424.658C1000.13 424.559 996.399 424.331 993.155 424.251C989.355 424.172 988.671 424.836 984.227 424.37C981.548 424.092 981.082 421.305 982.243 421.176C987.461 420.591 988.711 420.184 993.155 417.516C993.652 417.198 994.231 417.033 994.821 417.039V417.039Z" fill="#263238"/>
<path opacity="0.2" d="M994.147 402.596L994.623 410.433L1001.18 410.581L1000.71 402.745L994.147 402.596Z" fill="black"/>
<path d="M991.24 201.934C989.058 206.21 986.756 210.346 984.296 214.473C981.836 218.6 979.336 222.627 976.36 226.675C975.983 227.18 975.566 227.667 975.17 228.212C975.001 228.44 974.713 228.768 974.455 229.055C974.198 229.343 973.93 229.66 973.642 229.928C972.529 231.047 971.263 232.002 969.882 232.765C967.307 234.207 964.452 235.08 961.51 235.325C958.843 235.563 956.156 235.433 953.524 234.938C952.255 234.712 951 234.414 949.765 234.045C948.51 233.686 947.281 233.245 946.084 232.726L947.671 227.716C948.663 227.825 949.794 227.944 950.866 228.004C951.937 228.063 953.048 228.063 954.119 228.004C956.176 227.982 958.223 227.722 960.22 227.23C961.964 226.829 963.61 226.084 965.061 225.038C965.691 224.571 966.258 224.024 966.748 223.411C966.874 223.264 966.99 223.108 967.095 222.945C967.214 222.786 967.313 222.657 967.472 222.409L968.345 221.07C970.676 217.34 972.928 213.243 975.16 209.166L981.856 196.924L991.24 201.934Z" fill="#FFC3BD"/>
<path d="M997.123 195.496C998.115 201.448 984.514 219.393 984.514 219.393L974.545 207.4C977.378 202.533 980.631 197.922 984.266 193.621C989.435 187.828 996.021 188.929 997.123 195.496Z" fill="white"/>
<path opacity="0.2" d="M993.938 200.585C989.97 201.577 983.284 205.793 980.05 213.987L984.544 219.403C984.544 219.403 992.609 208.799 995.863 201.18C995.643 200.894 995.34 200.684 994.995 200.577C994.65 200.47 994.281 200.473 993.938 200.585V200.585Z" fill="black"/>
<path d="M990.089 189.871C990.089 189.871 979.634 203.204 980.328 241.684L1015.65 248.072C1016.87 242.695 1017.31 220.822 1027.16 196.22C1023.39 194.762 1019.53 193.549 1015.6 192.589C1010.65 191.391 1005.64 190.483 1000.58 189.871C997.092 189.599 993.582 189.599 990.089 189.871V189.871Z" fill="white"/>
<path opacity="0.2" d="M1019.68 211.239C1018.17 213.372 1017.26 219.175 1019.29 223.143C1019.77 220.683 1020.34 218.104 1021.01 215.415L1019.68 211.239Z" fill="black"/>
<path d="M1000.58 189.871C1000.58 189.871 996.349 198.194 1001.29 202.519C1009.93 201.785 1015.6 192.599 1015.6 192.599L1000.58 189.871Z" fill="#263238"/>
<path d="M935.966 224.393L936.075 229.323L940.341 232.408L942.265 225.643L935.966 224.393Z" fill="#FFC3BD"/>
<path d="M949.864 228.232L942.265 225.643L940.341 232.408C940.341 232.408 944.765 234.333 948.277 231.754L949.864 228.232Z" fill="#FFC3BD"/>
<path d="M1017.17 175.408C1015.35 180.07 1012.81 188.75 1015.6 192.589C1015.6 192.589 1011.75 197.083 1003.11 197.817C998.154 193.492 1000.58 189.881 1000.58 189.881C1006.21 189.564 1006.78 185.546 1006.54 181.618L1017.17 175.408Z" fill="#FFC3BD"/>
<path opacity="0.2" d="M1012.84 177.938L1006.54 181.608C1006.61 182.522 1006.61 183.441 1006.54 184.356C1009.33 185.794 1011.62 184.286 1012.84 181.261C1013.09 180.167 1013.09 179.031 1012.84 177.938Z" fill="black"/>
<path d="M1003.22 170.051C1003.63 173.027 1012.81 168.176 1014.35 167.155C1015.9 166.133 1014.13 162.591 1010.64 159.734C1007.16 156.877 1002.28 163.097 1003.22 170.051Z" fill="#263238"/>
<path d="M1022.05 171.42C1019.24 177.461 1017.91 181.142 1013.54 183.086C1006.97 186.062 1000.44 180.199 1001.38 173.444C1002.22 167.363 1006.67 158.504 1013.69 158.405C1015.24 158.376 1016.77 158.744 1018.14 159.475C1019.51 160.205 1020.67 161.274 1021.5 162.578C1022.34 163.883 1022.83 165.38 1022.93 166.928C1023.02 168.476 1022.72 170.022 1022.05 171.42V171.42Z" fill="#FFC3BD"/>
<path d="M1019.57 177.075C1016.6 177.521 1018.7 167.353 1019.24 165.587C1019.79 163.821 1024.51 162.204 1027.18 165.835C1030.38 170.269 1026.52 176.043 1019.57 177.075Z" fill="#263238"/>
<path d="M1018.68 156.391C1016.01 155.856 1016.77 153.028 1018.74 153.177C1017.16 151.263 1007.83 149.517 1007.32 155.707C1006.81 161.897 1018.85 165.329 1022.1 165.766L1026.95 167.125C1033.49 163.861 1026.24 157.909 1018.68 156.391Z" fill="#263238"/>
<path d="M1022.38 178.731C1021.15 179.875 1019.52 180.485 1017.85 180.428C1015.63 180.328 1015.21 178.186 1016.4 176.46C1017.46 174.892 1019.91 173.057 1021.86 173.999C1022.28 174.214 1022.64 174.53 1022.91 174.919C1023.18 175.308 1023.35 175.757 1023.4 176.226C1023.45 176.695 1023.38 177.17 1023.2 177.607C1023.03 178.045 1022.74 178.431 1022.38 178.731V178.731Z" fill="#FFC3BD"/>
<path d="M981.657 405.651L975.219 406.921L972.065 392.061L978.503 390.791L981.657 405.651Z" fill="#FFC3BD"/>
<path d="M974.812 406.227L981.846 404.838C981.974 404.814 982.107 404.834 982.222 404.895C982.338 404.956 982.429 405.055 982.481 405.175L984.871 410.641C984.924 410.773 984.947 410.915 984.939 411.057C984.932 411.199 984.894 411.338 984.828 411.464C984.762 411.59 984.67 411.701 984.557 411.788C984.445 411.875 984.315 411.937 984.177 411.97C981.628 412.427 977.937 412.962 974.753 413.627C971.023 414.361 969.793 414.44 965.458 415.303C962.809 415.819 961.549 413.319 962.611 412.833C967.432 410.74 969.555 410.572 973.364 407.03C973.761 406.631 974.263 406.352 974.812 406.227Z" fill="#263238"/>
<path opacity="0.2" d="M972.065 392.061L973.692 399.719L980.13 398.449L978.503 390.791L972.065 392.061Z" fill="black"/>
<path d="M972.392 407.784C971.976 407.976 971.506 408.018 971.063 407.903C970.914 407.851 970.782 407.761 970.677 407.643C970.573 407.525 970.501 407.382 970.468 407.228C970.434 407.142 970.426 407.048 970.443 406.956C970.461 406.865 970.504 406.781 970.567 406.713C971.122 406.108 973.622 406.604 973.9 406.663C973.931 406.67 973.96 406.686 973.983 406.709C974.006 406.731 974.022 406.76 974.029 406.792C974.034 406.822 974.03 406.853 974.018 406.882C974.005 406.91 973.985 406.934 973.959 406.951C973.47 407.286 972.944 407.566 972.392 407.784V407.784ZM970.983 406.792C970.917 406.815 970.856 406.852 970.805 406.901C970.805 406.901 970.735 406.99 970.805 407.109C970.825 407.215 970.873 407.313 970.942 407.394C971.012 407.476 971.101 407.539 971.202 407.576C972.024 407.642 972.841 407.389 973.483 406.871C972.65 406.676 971.787 406.65 970.944 406.792H970.983Z" fill="#00A8E8"/>
<path d="M973.89 406.921H973.811C973.027 406.802 971.261 405.929 971.132 405.135C971.114 405.017 971.137 404.895 971.199 404.792C971.261 404.689 971.356 404.61 971.47 404.57C971.58 404.519 971.7 404.492 971.822 404.492C971.943 404.492 972.064 404.519 972.174 404.57C973.166 404.897 973.94 406.663 973.979 406.732C973.994 406.756 974.002 406.784 974.002 406.812C974.002 406.84 973.994 406.867 973.979 406.891C973.954 406.912 973.923 406.923 973.89 406.921V406.921ZM971.678 404.808H971.609C971.43 404.907 971.44 405.006 971.45 405.046C971.519 405.483 972.71 406.236 973.533 406.494C973.265 405.988 972.68 404.996 972.075 404.788C971.944 404.75 971.804 404.757 971.678 404.808V404.808Z" fill="#00A8E8"/>
<path d="M980.328 241.684C980.328 241.684 964.645 301.382 960.111 321.351C955.409 342.133 971.251 398.291 971.251 398.291L981.717 396.227C981.717 396.227 977.322 338.969 978.82 329.882C984.822 307.88 1003.55 245.89 1003.55 245.89L980.328 241.684Z" fill="#00A8E8"/>
<path opacity="0.2" d="M982.312 291.164C981.661 299.478 981.794 307.835 982.709 316.123C987.193 300.519 993.423 279.588 997.906 264.638C993.383 266.593 983.989 272.793 982.312 291.164Z" fill="black"/>
<path d="M992.53 243.896C992.53 243.896 984.316 304.725 985.02 324.387C985.784 345.903 990.873 408.478 990.873 408.478L1003.14 408.776C1003.14 408.776 1002.96 349.613 1004.14 328.642C1005.37 305.886 1015.35 248.042 1015.35 248.042L992.53 243.896Z" fill="#00A8E8"/>
<path d="M1003.97 409.024L990.724 408.736L989.683 403.717L1004.34 403.628L1003.97 409.024Z" fill="#263238"/>
<path d="M983.78 396.088L970.785 398.648L968.682 393.965L983.086 391.396L983.78 396.088Z" fill="#263238"/>
<path d="M1012.37 169.615C1012.17 170.121 1011.74 170.428 1011.38 170.299C1011.01 170.17 1010.94 169.654 1011.14 169.148C1011.34 168.643 1011.76 168.345 1012.13 168.474C1012.5 168.603 1012.56 169.119 1012.37 169.615Z" fill="#263238"/>
<path d="M1006.67 167.393C1006.47 167.889 1006.04 168.196 1005.67 168.067C1005.31 167.938 1005.24 167.422 1005.44 166.926C1005.63 166.43 1006.06 166.113 1006.43 166.242C1006.79 166.371 1006.86 166.887 1006.67 167.393Z" fill="#263238"/>
<path d="M1007.99 168.196C1006.79 169.503 1005.41 170.638 1003.9 171.569C1004.15 171.949 1004.48 172.271 1004.86 172.512C1005.25 172.754 1005.68 172.909 1006.13 172.968L1007.99 168.196Z" fill="#ED847E"/>
<path d="M1006.04 175.408C1006.02 175.401 1006 175.39 1005.98 175.375C1005.97 175.36 1005.95 175.342 1005.94 175.322C1005.93 175.301 1005.93 175.279 1005.93 175.257C1005.93 175.234 1005.93 175.212 1005.94 175.192C1005.95 175.171 1005.97 175.153 1005.98 175.138C1006 175.123 1006.02 175.112 1006.04 175.105C1006.06 175.098 1006.08 175.096 1006.11 175.099C1006.13 175.102 1006.15 175.109 1006.17 175.12C1006.78 175.403 1007.45 175.539 1008.12 175.516C1008.8 175.494 1009.46 175.314 1010.05 174.991C1010.07 174.978 1010.09 174.969 1010.11 174.964C1010.13 174.959 1010.15 174.959 1010.17 174.963C1010.19 174.967 1010.21 174.975 1010.23 174.988C1010.25 175 1010.27 175.016 1010.28 175.034C1010.29 175.053 1010.3 175.073 1010.3 175.095C1010.3 175.117 1010.3 175.139 1010.3 175.16C1010.29 175.181 1010.28 175.201 1010.27 175.218C1010.25 175.235 1010.24 175.249 1010.22 175.259C1009.58 175.619 1008.87 175.82 1008.15 175.846C1007.42 175.872 1006.7 175.722 1006.04 175.408V175.408Z" fill="#263238"/>
<path d="M1015.52 168.474C1015.48 168.449 1015.45 168.416 1015.42 168.376C1015.39 168.337 1015.37 168.293 1015.37 168.246C1015.31 167.846 1015.17 167.464 1014.94 167.131C1014.71 166.798 1014.41 166.524 1014.06 166.331C1013.98 166.297 1013.92 166.233 1013.89 166.155C1013.86 166.077 1013.86 165.991 1013.9 165.915C1013.93 165.838 1014 165.779 1014.08 165.749C1014.16 165.719 1014.25 165.722 1014.32 165.756C1014.77 165.995 1015.15 166.336 1015.43 166.752C1015.72 167.168 1015.9 167.646 1015.96 168.147C1015.97 168.188 1015.97 168.231 1015.96 168.272C1015.95 168.313 1015.93 168.352 1015.9 168.387C1015.88 168.421 1015.85 168.45 1015.81 168.471C1015.77 168.493 1015.73 168.508 1015.69 168.514C1015.63 168.515 1015.58 168.502 1015.52 168.474Z" fill="#263238"/>
<path d="M1005.23 163.99C1005.19 163.968 1005.15 163.933 1005.13 163.891C1005.1 163.856 1005.09 163.817 1005.08 163.776C1005.07 163.734 1005.07 163.692 1005.08 163.651C1005.09 163.61 1005.11 163.572 1005.14 163.538C1005.16 163.504 1005.19 163.476 1005.23 163.454C1005.65 163.18 1006.13 163.012 1006.64 162.962C1007.14 162.911 1007.64 162.982 1008.11 163.167C1008.19 163.203 1008.25 163.268 1008.28 163.348C1008.31 163.427 1008.31 163.515 1008.27 163.593C1008.25 163.631 1008.23 163.665 1008.2 163.693C1008.17 163.721 1008.13 163.743 1008.09 163.757C1008.05 163.771 1008.01 163.776 1007.97 163.774C1007.93 163.771 1007.88 163.761 1007.85 163.742V163.742C1007.47 163.6 1007.07 163.548 1006.68 163.591C1006.28 163.634 1005.9 163.771 1005.56 163.99C1005.51 164.022 1005.46 164.039 1005.4 164.039C1005.34 164.039 1005.28 164.022 1005.23 163.99V163.99Z" fill="#263238"/>
<path d="M1022.14 194.077L1020.49 193.631C1020.42 193.608 1020.33 193.616 1020.26 193.653C1020.18 193.69 1020.13 193.753 1020.1 193.829C1010.95 217.915 1008.78 244.848 1008.78 244.848L1010.61 245.175C1012.69 227.912 1016.63 210.923 1022.36 194.504C1022.38 194.462 1022.38 194.417 1022.38 194.371C1022.38 194.326 1022.37 194.281 1022.35 194.241C1022.33 194.201 1022.3 194.165 1022.26 194.137C1022.23 194.109 1022.18 194.088 1022.14 194.077V194.077Z" fill="#00A8E8"/>
<g opacity="0.99">
<path d="M1010.88 245.225C1010.9 245.147 1010.89 245.068 1010.88 244.991C1010.86 244.914 1010.83 244.841 1010.78 244.776C1010.74 244.711 1010.68 244.656 1010.61 244.614C1010.55 244.572 1010.47 244.544 1010.4 244.531L1009.13 244.292C1008.98 244.271 1008.84 244.302 1008.72 244.379C1008.59 244.455 1008.5 244.573 1008.46 244.71C1008.42 244.848 1008.42 244.996 1008.48 245.129C1008.54 245.261 1008.64 245.369 1008.77 245.433L1008.49 247.011C1008.47 247.112 1008.47 247.216 1008.5 247.317C1008.52 247.418 1008.56 247.514 1008.62 247.598C1008.68 247.683 1008.75 247.755 1008.84 247.811C1008.93 247.867 1009.02 247.905 1009.13 247.923C1009.23 247.941 1009.33 247.939 1009.43 247.917C1009.53 247.895 1009.63 247.854 1009.71 247.795C1009.8 247.736 1009.87 247.661 1009.93 247.574C1009.98 247.487 1010.02 247.39 1010.04 247.288L1010.33 245.711C1010.46 245.703 1010.59 245.65 1010.69 245.563C1010.79 245.475 1010.86 245.356 1010.88 245.225V245.225Z" fill="#263238"/>
</g>
<path d="M994.107 189.356H992.401C992.332 189.356 992.265 189.379 992.21 189.42C992.155 189.461 992.114 189.518 992.093 189.584C984.078 213.888 983.284 240.176 983.284 240.176L985.119 240.513C987.282 212.876 993.413 192.897 994.424 189.723C994.43 189.677 994.426 189.631 994.413 189.587C994.399 189.544 994.377 189.503 994.347 189.469C994.317 189.434 994.28 189.406 994.239 189.387C994.198 189.367 994.153 189.357 994.107 189.356Z" fill="#00A8E8"/>
<path opacity="0.99" d="M985.387 240.622C985.408 240.461 985.365 240.298 985.27 240.167C985.174 240.036 985.031 239.947 984.871 239.918L983.602 239.68C983.524 239.666 983.445 239.667 983.369 239.685C983.292 239.703 983.22 239.736 983.157 239.782C983.094 239.829 983.041 239.887 983.002 239.955C982.962 240.023 982.937 240.098 982.927 240.176C982.913 240.311 982.942 240.446 983.01 240.564C983.077 240.682 983.18 240.775 983.304 240.83L983.096 242.418C983.069 242.628 983.125 242.841 983.25 243.013C983.375 243.184 983.561 243.301 983.77 243.34C983.871 243.36 983.975 243.359 984.075 243.337C984.175 243.314 984.27 243.272 984.353 243.211C984.436 243.15 984.505 243.073 984.557 242.985C984.609 242.896 984.641 242.797 984.653 242.695L984.861 241.108C984.992 241.102 985.117 241.05 985.213 240.961C985.309 240.872 985.371 240.752 985.387 240.622V240.622Z" fill="#263238"/>
<path d="M992.093 417.982C991.648 418.082 991.182 418.026 990.774 417.823C990.642 417.736 990.532 417.619 990.454 417.48C990.377 417.342 990.333 417.188 990.328 417.029C990.315 416.939 990.328 416.846 990.364 416.762C990.401 416.678 990.46 416.606 990.536 416.553C991.22 416.077 993.512 417.099 993.809 417.218C993.838 417.232 993.862 417.253 993.879 417.279C993.896 417.305 993.907 417.335 993.909 417.367C993.904 417.397 993.892 417.426 993.872 417.451C993.853 417.475 993.828 417.494 993.8 417.506C993.252 417.732 992.679 417.892 992.093 417.982V417.982ZM990.923 416.712C990.852 416.717 990.783 416.741 990.724 416.781C990.693 416.803 990.668 416.833 990.654 416.868C990.64 416.904 990.637 416.943 990.645 416.98C990.647 417.088 990.675 417.194 990.727 417.289C990.779 417.384 990.853 417.465 990.943 417.525C991.73 417.765 992.58 417.69 993.313 417.317C992.563 416.964 991.751 416.759 990.923 416.712V416.712Z" fill="#00A8E8"/>
<path d="M993.77 417.516H993.69C992.946 417.228 991.419 415.958 991.458 415.194C991.468 415.075 991.517 414.962 991.598 414.874C991.679 414.786 991.787 414.728 991.905 414.708C992.024 414.678 992.148 414.674 992.269 414.694C992.39 414.715 992.506 414.76 992.609 414.827C993.462 415.353 993.889 417.248 993.899 417.327C993.906 417.355 993.905 417.385 993.896 417.413C993.887 417.441 993.871 417.466 993.849 417.486C993.838 417.496 993.826 417.504 993.812 417.509C993.799 417.514 993.784 417.516 993.77 417.516ZM992.063 415.006H991.984C991.786 415.065 991.786 415.164 991.776 415.204C991.776 415.651 992.768 416.633 993.512 417.059C993.357 416.307 992.985 415.617 992.44 415.075C992.328 415.006 992.193 414.982 992.063 415.006V415.006Z" fill="#00A8E8"/>
<path d="M996.656 264.738L1002.2 268.656L1006.36 265.591L1001.04 259.113L996.656 264.738Z" fill="#FFC3BD"/>
<path d="M1008.89 257.932L1001.04 259.113L1006.36 265.591C1006.36 265.591 1011.8 264.261 1011.51 259.897L1008.89 257.932Z" fill="#FFC3BD"/>
<path d="M1032 206.487C1032.3 211.666 1032.46 216.824 1032.49 222.022C1032.49 224.611 1032.49 227.21 1032.49 229.829C1032.49 231.129 1032.44 232.438 1032.37 233.797L1032.27 235.781L1032.22 236.773C1032.22 237.239 1032.12 237.765 1032.05 238.261C1031.75 239.993 1031.18 241.667 1030.36 243.221C1029.65 244.565 1028.84 245.854 1027.94 247.08C1026.27 249.321 1024.41 251.418 1022.38 253.349C1018.5 257.056 1014.25 260.362 1009.71 263.22L1006.5 259.053C1008.22 257.308 1010.03 255.492 1011.7 253.627C1013.36 251.762 1015.02 249.907 1016.54 248.003C1018.02 246.169 1019.38 244.233 1020.59 242.209C1021.13 241.295 1021.59 240.344 1021.99 239.362C1022.31 238.596 1022.52 237.788 1022.62 236.962C1022.61 236.813 1022.61 236.664 1022.62 236.515V235.603L1022.57 233.738L1022.41 229.958L1021.99 222.28C1021.73 217.181 1021.53 212.043 1021.39 206.934L1032 206.487Z" fill="#FFC3BD"/>
<path d="M1027.16 196.22C1035.64 199.375 1035.57 222.062 1035.57 222.062L1021.22 224.7C1021.22 224.7 1017.75 214.394 1019.46 206.279C1021.1 198.532 1020.71 193.81 1027.16 196.22Z" fill="white"/>
<path d="M917.673 225.405L879.223 211.001L872.468 170.508L904.212 144.408L942.632 158.792L949.387 199.295L917.673 225.405ZM880.84 209.672L917.326 223.332L947.394 198.532L940.985 160.111L904.499 146.452L874.432 171.252L880.84 209.672Z" fill="#00A8E8"/>
<path d="M909.35 149.033C911.327 146.265 910.685 142.417 907.916 140.44C905.147 138.463 901.3 139.105 899.323 141.873C897.346 144.642 897.987 148.49 900.756 150.467C903.525 152.444 907.372 151.802 909.35 149.033Z" fill="#00A8E8"/>
<path d="M922.504 227.946C924.481 225.178 923.839 221.33 921.07 219.353C918.302 217.376 914.454 218.018 912.477 220.787C910.5 223.555 911.142 227.403 913.911 229.38C916.679 231.357 920.527 230.715 922.504 227.946Z" fill="#00A8E8"/>
<path d="M938.218 164.486C937.226 163.778 936.467 162.791 936.036 161.651C935.605 160.512 935.522 159.27 935.797 158.082C936.072 156.895 936.693 155.816 937.582 154.982C938.47 154.148 939.586 153.596 940.788 153.396C941.99 153.196 943.224 153.358 944.335 153.859C945.445 154.361 946.382 155.181 947.027 156.215C947.671 157.249 947.994 158.451 947.955 159.669C947.917 160.887 947.517 162.067 946.808 163.058C945.858 164.386 944.42 165.282 942.809 165.55C941.198 165.818 939.547 165.435 938.218 164.486V164.486Z" fill="#00A8E8"/>
<path d="M869.859 175.825C868.867 175.117 868.106 174.132 867.675 172.992C867.243 171.853 867.158 170.611 867.432 169.424C867.706 168.236 868.326 167.157 869.213 166.322C870.101 165.487 871.216 164.934 872.417 164.733C873.619 164.531 874.854 164.691 875.965 165.192C877.076 165.692 878.013 166.511 878.659 167.544C879.305 168.577 879.629 169.779 879.592 170.997C879.555 172.215 879.157 173.394 878.45 174.386C877.499 175.714 876.062 176.611 874.451 176.88C872.841 177.15 871.19 176.77 869.859 175.825V175.825Z" fill="#00A8E8"/>
<path d="M944.804 204.017C943.814 203.309 943.055 202.323 942.624 201.184C942.194 200.044 942.111 198.803 942.385 197.617C942.66 196.43 943.28 195.352 944.167 194.517C945.055 193.683 946.169 193.131 947.371 192.93C948.572 192.729 949.806 192.889 950.916 193.389C952.027 193.889 952.964 194.707 953.61 195.739C954.256 196.772 954.581 197.973 954.544 199.19C954.508 200.408 954.111 201.587 953.405 202.579C952.935 203.239 952.34 203.799 951.653 204.229C950.967 204.658 950.202 204.948 949.403 205.082C948.604 205.215 947.787 205.19 946.998 205.007C946.209 204.825 945.463 204.488 944.804 204.017V204.017Z" fill="#00A8E8"/>
<path d="M876.456 215.336C875.464 214.628 874.705 213.641 874.274 212.501C873.843 211.361 873.76 210.119 874.035 208.932C874.31 207.745 874.931 206.666 875.82 205.832C876.708 204.998 877.824 204.446 879.026 204.246C880.228 204.046 881.462 204.207 882.573 204.709C883.683 205.211 884.62 206.031 885.265 207.065C885.909 208.099 886.232 209.301 886.193 210.519C886.155 211.737 885.755 212.916 885.046 213.908C884.577 214.566 883.982 215.126 883.296 215.554C882.609 215.983 881.845 216.271 881.047 216.404C880.249 216.537 879.433 216.511 878.645 216.327C877.857 216.144 877.113 215.807 876.456 215.336V215.336Z" fill="#00A8E8"/>
<path d="M897.932 174.664L905.7 173.364L907.971 186.985C908.422 189.173 908.532 191.419 908.299 193.641C907.991 195.307 907.136 196.822 905.868 197.946C904.292 199.346 902.327 200.232 900.234 200.486C898.241 200.932 896.175 200.932 894.183 200.486C892.719 200.058 891.418 199.197 890.453 198.016C889.392 196.648 888.656 195.057 888.3 193.363L895.532 191.111C895.649 191.948 895.886 192.763 896.236 193.532C896.494 194.018 896.891 194.415 897.377 194.673C897.793 194.85 898.255 194.892 898.696 194.792C899.077 194.755 899.44 194.615 899.747 194.388C900.055 194.161 900.295 193.855 900.442 193.502C900.756 192.409 900.779 191.254 900.512 190.149L897.932 174.664Z" fill="#263238"/>
<path d="M912.306 189.484L919.608 187.798C919.849 188.765 920.342 189.652 921.036 190.367C921.526 190.814 922.116 191.138 922.756 191.31C923.396 191.483 924.068 191.5 924.716 191.359C925.643 191.269 926.504 190.842 927.137 190.159C927.381 189.895 927.562 189.58 927.667 189.236C927.772 188.893 927.797 188.53 927.742 188.175C927.679 187.839 927.543 187.522 927.344 187.244C927.146 186.967 926.889 186.736 926.591 186.568C925.258 186.008 923.82 185.741 922.375 185.784C918.85 185.586 916.258 184.974 914.598 183.949C913.799 183.473 913.118 182.824 912.603 182.05C912.088 181.275 911.753 180.396 911.622 179.475C911.414 178.173 911.593 176.838 912.138 175.636C912.765 174.283 913.78 173.147 915.054 172.372C916.886 171.322 918.91 170.647 921.006 170.388C924.214 169.853 926.757 170.041 928.635 170.954C929.631 171.479 930.502 172.214 931.187 173.107C931.872 174.001 932.355 175.033 932.603 176.132L925.371 177.779C925.271 177.316 925.077 176.878 924.801 176.493C924.525 176.108 924.173 175.783 923.767 175.539C923.361 175.296 922.909 175.138 922.439 175.076C921.969 175.015 921.492 175.05 921.036 175.18C920.287 175.239 919.584 175.562 919.052 176.092C918.866 176.292 918.728 176.532 918.649 176.793C918.569 177.055 918.551 177.331 918.596 177.6C918.637 177.811 918.726 178.01 918.854 178.181C918.983 178.353 919.149 178.494 919.34 178.592C920.213 178.952 921.154 179.118 922.097 179.078C924.677 179.11 927.244 179.443 929.746 180.07C931.151 180.461 932.419 181.238 933.406 182.312C934.263 183.324 934.823 184.553 935.023 185.864C935.295 187.442 935.088 189.066 934.428 190.526C933.754 192.058 932.634 193.351 931.214 194.236C929.423 195.32 927.427 196.023 925.351 196.3C921.086 197.014 917.997 196.683 916.086 195.308C914.166 193.885 912.824 191.817 912.306 189.484V189.484Z" fill="#263238"/>
</svg>
