<svg width="1369" height="514" viewBox="0 0 1369 514" fill="none" xmlns="http://www.w3.org/2000/svg">
<rect width="1369" height="514" fill="#E9ECEF"/>
<path d="M485.481 285.526C495.15 257.701 500.288 228.807 500.74 199.71C501.274 169.757 497.539 137.369 475.131 114.918C453.128 92.9658 417.819 85.4634 384.601 84.1848C371.145 83.6772 357.401 84.0156 344.629 87.7762C318.838 95.3726 300.762 115.52 277.884 128.475C233.718 153.483 174.048 150.522 131.589 177.729C120.72 184.816 111.258 193.441 103.589 203.254C72.6446 242.317 70.2223 296.432 93.8471 339.284C117.472 382.136 164.924 413.236 217.435 424.668C269.945 436.1 326.606 428.551 375.264 407.745C431.957 383.499 467.266 337.084 485.481 285.526Z" fill="#00A8E8"/>
<path opacity="0.7" d="M485.481 285.526C495.15 257.701 500.288 228.807 500.74 199.71C501.274 169.757 497.539 137.369 475.131 114.918C453.128 92.9658 417.819 85.4634 384.601 84.1848C371.145 83.6772 357.401 84.0156 344.629 87.7762C318.838 95.3726 300.762 115.52 277.884 128.475C233.718 153.483 174.048 150.522 131.589 177.729C120.72 184.816 111.258 193.441 103.589 203.254C72.6446 242.317 70.2223 296.432 93.8471 339.284C117.472 382.136 164.924 413.236 217.435 424.668C269.945 436.1 326.606 428.551 375.264 407.745C431.957 383.499 467.266 337.084 485.481 285.526Z" fill="white"/>
<path d="M418.286 105.31V301.293C418.287 302.679 418.015 304.053 417.484 305.334C416.954 306.616 416.177 307.78 415.196 308.761C414.215 309.742 413.051 310.519 411.769 311.049C410.488 311.579 409.115 311.852 407.728 311.85H146.367C144.979 311.855 143.603 311.586 142.318 311.057C141.034 310.529 139.867 309.751 138.884 308.77C137.901 307.789 137.122 306.624 136.591 305.34C136.06 304.057 135.788 302.681 135.791 301.293V105.31C135.789 103.924 136.061 102.551 136.591 101.27C137.12 99.9894 137.897 98.8255 138.877 97.845C139.857 96.8645 141.02 96.0866 142.3 95.5559C143.581 95.0252 144.953 94.7521 146.339 94.7521H407.7C409.089 94.7471 410.465 95.0166 411.75 95.5451C413.035 96.0736 414.202 96.8506 415.186 97.8316C416.17 98.8126 416.95 99.9783 417.482 101.262C418.014 102.545 418.287 103.921 418.286 105.31V105.31Z" fill="white"/>
<path d="M418.286 111.364V301.274C418.289 302.662 418.019 304.038 417.49 305.321C416.961 306.605 416.184 307.772 415.203 308.754C414.222 309.737 413.057 310.516 411.774 311.048C410.491 311.579 409.116 311.852 407.728 311.85H146.367C145.375 311.853 144.387 311.713 143.434 311.437L418.286 111.364Z" fill="#263238"/>
<path opacity="0.9" d="M418.286 111.364V301.274C418.289 302.662 418.019 304.038 417.49 305.321C416.961 306.605 416.184 307.772 415.203 308.754C414.222 309.737 413.057 310.516 411.774 311.048C410.491 311.579 409.116 311.852 407.728 311.85H146.367C145.375 311.853 144.387 311.713 143.434 311.437L418.286 111.364Z" fill="white"/>
<path d="M345.829 217.46L360.109 211.029L357.063 194.003L341.307 192.743C339.332 187.486 336.681 182.508 333.419 177.936L338.345 169.597L341.495 164.248L329.273 152.12L315.594 160.337C307.738 154.915 298.814 151.235 289.42 149.544L285.481 133.862H268.22L264.215 149.657C258.879 150.731 253.682 152.402 248.721 154.639L236.32 143.959L222.171 153.596L228.057 168.873C224.314 172.75 221.076 177.084 218.42 181.772L202.137 180.127L196.28 196.382L209.686 205.529C209.035 209.346 208.72 213.212 208.746 217.084C208.633 218.677 208.633 220.276 208.746 221.869L194.512 229.86L199.025 246.51H215.101C216.643 249.824 218.447 253.009 220.498 256.034C221.551 257.582 222.663 259.09 223.835 260.556L216.897 274.893L230.181 286.034L242.995 276.435C247.867 279.251 253.072 281.446 258.489 282.969L261.056 298.463L278.317 299.995L283.488 285.385C289.125 284.825 294.678 283.61 300.034 281.766L310.987 292.709L325.982 284.06L321.855 269.13C326.213 265.477 330.092 261.289 333.4 256.664L348.593 259.39L355.907 243.728L343.967 234.1C345.262 228.65 345.887 223.062 345.829 217.46V217.46ZM306.389 217.46C306.389 224.244 304.037 230.819 299.735 236.065C295.433 241.31 289.446 244.903 282.792 246.231C276.139 247.56 269.232 246.542 263.245 243.35C257.258 240.159 252.562 234.991 249.956 228.727C247.35 222.463 246.996 215.49 248.953 208.994C250.91 202.498 255.057 196.88 260.69 193.098C266.322 189.316 273.091 187.602 279.844 188.249C286.598 188.896 292.919 191.863 297.731 196.645C298.257 197.172 298.774 197.717 299.244 198.29C303.822 203.558 306.357 210.293 306.389 217.272V217.46Z" fill="#00A8E8" stroke="#263238" stroke-width="1.02934" stroke-miterlimit="10"/>
<path opacity="0.2" d="M343.967 234.053L355.907 243.681L348.593 259.343L333.4 256.617C330.092 261.242 326.213 265.43 321.855 269.083L325.982 284.013L310.987 292.662L300.034 281.766C294.674 283.628 289.114 284.858 283.469 285.432L278.317 299.995L261.065 298.463L258.499 282.969C253.082 281.446 247.877 279.251 243.005 276.435L230.191 286.034L216.906 274.893L223.788 260.556C222.616 259.09 221.504 257.582 220.451 256.034L252.059 232.878C255.418 238.309 260.456 242.497 266.409 244.806C272.362 247.116 278.906 247.422 285.049 245.678C291.192 243.933 296.598 240.234 300.449 235.14C304.3 230.046 306.386 223.836 306.39 217.45V217.262C306.357 210.284 303.822 203.549 299.244 198.281L338.383 169.588L333.456 177.927C336.706 182.503 339.345 187.484 341.307 192.743L356.988 194.003L360.109 211.029L345.866 217.46C345.908 223.048 345.271 228.62 343.967 234.053V234.053Z" fill="black"/>
<path d="M405.161 172.201L405.876 171.872C406.276 171.697 406.605 171.392 406.81 171.006C407.015 170.621 407.083 170.177 407.004 169.747L406.853 168.873C406.783 168.443 406.569 168.049 406.246 167.756C405.924 167.462 405.512 167.286 405.077 167.256L404.212 167.19C403.875 167.168 403.549 167.058 403.267 166.872C402.985 166.686 402.757 166.429 402.604 166.128C402.369 165.63 402.125 165.188 401.852 164.689C401.681 164.395 401.591 164.061 401.591 163.721C401.591 163.381 401.681 163.047 401.852 162.753L402.294 162.001C402.513 161.624 402.601 161.186 402.545 160.754C402.489 160.322 402.291 159.921 401.984 159.613L401.363 158.992C401.061 158.67 400.656 158.464 400.217 158.411C399.779 158.357 399.336 158.46 398.966 158.701L398.204 159.152C397.91 159.323 397.576 159.413 397.236 159.413C396.896 159.413 396.562 159.323 396.267 159.152C395.033 158.442 393.708 157.904 392.328 157.554C391.99 157.465 391.682 157.286 391.437 157.036C391.191 156.786 391.019 156.474 390.937 156.134L390.711 155.194C390.611 154.759 390.364 154.373 390.01 154.1C389.657 153.827 389.22 153.686 388.774 153.699H387.91C387.465 153.685 387.029 153.826 386.676 154.096C386.323 154.367 386.075 154.752 385.973 155.185L385.728 156.125C385.644 156.457 385.474 156.762 385.234 157.008C384.995 157.254 384.695 157.432 384.365 157.526C383.876 157.657 383.425 157.808 382.946 157.977C382.62 158.096 382.269 158.126 381.928 158.063C381.588 158 381.27 157.847 381.009 157.62L380.229 156.952C379.903 156.668 379.493 156.501 379.062 156.477C378.631 156.453 378.204 156.574 377.85 156.82L377.164 157.281C376.795 157.529 376.522 157.895 376.391 158.319C376.259 158.743 376.276 159.2 376.44 159.613L376.788 160.553C376.912 160.874 376.95 161.222 376.897 161.562C376.845 161.902 376.703 162.222 376.487 162.49C376.177 162.856 375.885 163.242 375.612 163.637C375.421 163.929 375.151 164.163 374.834 164.311C374.516 164.458 374.164 164.515 373.817 164.473L372.877 164.379C372.441 164.331 372.002 164.433 371.632 164.667C371.261 164.901 370.981 165.253 370.837 165.667L370.526 166.523C370.376 166.925 370.364 167.366 370.491 167.776C370.619 168.186 370.879 168.543 371.231 168.789L372.125 169.418C372.403 169.616 372.625 169.883 372.767 170.193C372.909 170.504 372.966 170.846 372.933 171.186C372.88 171.692 372.855 172.2 372.858 172.709V172.709C372.847 173.039 372.756 173.362 372.592 173.649C372.429 173.935 372.197 174.178 371.918 174.354L370.978 174.852C370.589 175.062 370.284 175.399 370.113 175.806C369.943 176.213 369.916 176.666 370.037 177.09L370.263 177.936C370.374 178.361 370.626 178.736 370.978 178.999C371.33 179.263 371.761 179.398 372.2 179.384H373.14C373.48 179.378 373.815 179.462 374.112 179.627C374.409 179.792 374.657 180.033 374.832 180.324C375.095 180.785 375.377 181.264 375.669 181.669C375.862 181.949 375.978 182.277 376.004 182.617C376.031 182.957 375.967 183.298 375.819 183.605L375.424 184.423C375.229 184.816 375.173 185.263 375.266 185.692C375.358 186.12 375.593 186.505 375.932 186.783L376.6 187.347C376.933 187.633 377.354 187.797 377.793 187.813C378.232 187.828 378.663 187.694 379.016 187.432L379.702 186.952C379.98 186.753 380.305 186.63 380.645 186.597C380.985 186.564 381.328 186.622 381.639 186.764C382.128 186.999 382.626 187.215 383.143 187.403C383.462 187.522 383.744 187.722 383.96 187.985C384.177 188.247 384.319 188.563 384.375 188.898L384.516 189.735C384.585 190.167 384.8 190.563 385.125 190.857C385.45 191.151 385.865 191.326 386.302 191.352L387.186 191.437C387.619 191.475 388.052 191.367 388.417 191.13C388.782 190.893 389.056 190.541 389.198 190.13L389.47 189.368C389.586 189.043 389.787 188.754 390.051 188.531C390.315 188.308 390.634 188.159 390.974 188.099C391.523 188.016 392.066 187.9 392.601 187.751C392.932 187.657 393.282 187.656 393.613 187.747C393.945 187.838 394.245 188.018 394.481 188.268L395.055 188.851C395.357 189.162 395.755 189.362 396.184 189.42C396.614 189.478 397.05 189.39 397.424 189.171L398.195 188.729C398.581 188.519 398.884 188.185 399.055 187.78C399.226 187.375 399.254 186.924 399.135 186.501L398.919 185.739C398.818 185.402 398.81 185.045 398.896 184.703C398.982 184.362 399.159 184.051 399.408 183.803C399.812 183.41 400.194 182.995 400.554 182.562C400.775 182.287 401.068 182.079 401.4 181.963C401.733 181.847 402.091 181.826 402.435 181.904L403.206 182.045C403.634 182.139 404.082 182.08 404.471 181.88C404.861 181.679 405.168 181.348 405.34 180.945L405.707 180.145C405.899 179.749 405.95 179.299 405.851 178.869C405.752 178.44 405.508 178.057 405.161 177.786L404.578 177.316C404.311 177.104 404.104 176.826 403.979 176.509C403.853 176.192 403.814 175.848 403.864 175.511C403.956 174.935 404.016 174.354 404.042 173.771C404.076 173.435 404.196 173.113 404.393 172.837C404.589 172.562 404.854 172.342 405.161 172.201V172.201ZM398.214 172.709C398.214 174.65 397.638 176.548 396.559 178.162C395.481 179.776 393.948 181.034 392.154 181.777C390.361 182.52 388.388 182.714 386.484 182.335C384.58 181.957 382.831 181.022 381.458 179.649C380.085 178.277 379.151 176.528 378.772 174.624C378.393 172.72 378.588 170.746 379.33 168.953C380.073 167.159 381.331 165.626 382.945 164.548C384.56 163.469 386.457 162.894 388.398 162.894C390.989 162.891 393.475 163.916 395.312 165.744C397.148 167.571 398.185 170.052 398.195 172.643L398.214 172.709Z" fill="#00A8E8" stroke="#263238" stroke-width="1.02934" stroke-miterlimit="10"/>
<path d="M418.286 105.31V105.846H135.791V105.31C135.789 103.924 136.061 102.551 136.591 101.27C137.12 99.9894 137.897 98.8255 138.877 97.845C139.857 96.8645 141.02 96.0866 142.3 95.5559C143.581 95.0252 144.953 94.7521 146.339 94.7521H407.7C409.089 94.7471 410.465 95.0166 411.75 95.5451C413.035 96.0736 414.202 96.8506 415.186 97.8316C416.17 98.8126 416.95 99.9783 417.482 101.262C418.014 102.545 418.287 103.921 418.286 105.31V105.31Z" fill="#263238"/>
<path d="M418.286 105.31V301.293C418.287 302.679 418.015 304.053 417.484 305.334C416.954 306.616 416.177 307.78 415.196 308.761C414.215 309.742 413.051 310.519 411.769 311.049C410.488 311.579 409.115 311.852 407.728 311.85H146.367C144.979 311.854 143.603 311.584 142.32 311.055C141.036 310.526 139.869 309.748 138.887 308.768C137.904 307.787 137.125 306.621 136.594 305.339C136.062 304.056 135.789 302.681 135.791 301.293V105.31C135.789 103.924 136.061 102.551 136.591 101.27C137.12 99.9894 137.897 98.8255 138.877 97.845C139.857 96.8645 141.02 96.0866 142.3 95.5559C143.581 95.0252 144.953 94.7521 146.339 94.7521H407.7C409.089 94.7471 410.465 95.0166 411.75 95.5451C413.035 96.0736 414.202 96.8506 415.186 97.8316C416.17 98.8126 416.95 99.9783 417.482 101.262C418.014 102.545 418.287 103.921 418.286 105.31V105.31Z" stroke="#263238" stroke-width="1.02934" stroke-linecap="round" stroke-linejoin="round"/>
<path d="M135.791 105.31H418.286" stroke="#263238" stroke-width="1.02934" stroke-linecap="round" stroke-linejoin="round"/>
<path d="M159.341 100.318C159.341 100.742 159.216 101.156 158.98 101.509C158.744 101.861 158.41 102.136 158.018 102.298C157.626 102.46 157.195 102.503 156.78 102.42C156.364 102.337 155.982 102.133 155.682 101.833C155.382 101.534 155.178 101.152 155.095 100.736C155.013 100.32 155.055 99.8891 155.217 99.4975C155.38 99.1058 155.654 98.771 156.007 98.5355C156.359 98.2999 156.774 98.1742 157.198 98.1742C157.766 98.1742 158.311 98.4001 158.713 98.802C159.115 99.204 159.341 99.7493 159.341 100.318Z" fill="#00A8E8"/>
<path d="M169.485 100.318C169.482 100.742 169.352 101.156 169.112 101.507C168.873 101.858 168.535 102.13 168.14 102.288C167.746 102.446 167.314 102.484 166.898 102.396C166.483 102.308 166.103 102.098 165.806 101.794C165.51 101.49 165.311 101.104 165.234 100.687C165.157 100.269 165.206 99.8379 165.374 99.448C165.543 99.0582 165.824 98.7271 166.181 98.497C166.538 98.2669 166.955 98.148 167.38 98.1554C167.945 98.1653 168.483 98.3981 168.878 98.8031C169.272 99.2081 169.491 99.7525 169.485 100.318Z" fill="#00A8E8"/>
<path d="M179.601 100.318C179.601 100.742 179.476 101.156 179.24 101.509C179.005 101.861 178.67 102.136 178.278 102.298C177.886 102.46 177.455 102.503 177.04 102.42C176.624 102.337 176.242 102.133 175.942 101.833C175.642 101.534 175.438 101.152 175.356 100.736C175.273 100.32 175.315 99.8891 175.477 99.4975C175.64 99.1058 175.914 98.771 176.267 98.5355C176.619 98.2999 177.034 98.1742 177.458 98.1742C177.739 98.1742 178.018 98.2297 178.278 98.3374C178.538 98.4451 178.775 98.603 178.974 98.802C179.173 99.0011 179.331 99.2374 179.438 99.4975C179.546 99.7575 179.601 100.036 179.601 100.318Z" fill="#00A8E8"/>
<path d="M322.156 217.46C322.156 226.335 319.524 235.011 314.593 242.39C309.662 249.769 302.654 255.521 294.455 258.917C286.255 262.314 277.233 263.202 268.528 261.471C259.824 259.739 251.828 255.466 245.552 249.19C239.277 242.914 235.003 234.919 233.272 226.214C231.54 217.51 232.429 208.487 235.825 200.288C239.221 192.088 244.973 185.08 252.352 180.149C259.732 175.218 268.407 172.587 277.282 172.587V172.587C289.135 172.586 300.506 177.275 308.913 185.63C317.321 193.984 322.081 205.326 322.156 217.178V217.46Z" stroke="#263238" stroke-width="4.11736" stroke-miterlimit="10"/>
<path d="M488.721 116.3H329.009C323.184 116.3 318.461 121.023 318.461 126.849V162.302C318.461 168.127 323.184 172.85 329.009 172.85H488.721C494.547 172.85 499.27 168.127 499.27 162.302V126.849C499.27 121.023 494.547 116.3 488.721 116.3Z" fill="white" stroke="#263238" stroke-width="1.02934" stroke-miterlimit="10"/>
<path d="M350.106 144.326H473.331" stroke="#263238" stroke-width="1.02934" stroke-miterlimit="10"/>
<path d="M346.261 144.326L365.722 130.609H415.286L435.509 144.326" stroke="#263238" stroke-width="1.02934" stroke-miterlimit="10"/>
<path d="M439.345 144.326C439.345 145.087 439.119 145.831 438.696 146.463C438.273 147.096 437.672 147.589 436.969 147.879C436.266 148.17 435.492 148.246 434.746 148.097C434 147.947 433.315 147.58 432.777 147.042C432.24 146.503 431.874 145.817 431.727 145.07C431.58 144.324 431.657 143.55 431.95 142.848C432.242 142.145 432.737 141.546 433.37 141.124C434.004 140.703 434.748 140.479 435.509 140.481C436.527 140.483 437.503 140.889 438.222 141.61C438.941 142.331 439.345 143.308 439.345 144.326Z" fill="#00A8E8" stroke="#263238" stroke-width="1.02934" stroke-miterlimit="10"/>
<path d="M365.722 134.454C367.846 134.454 369.567 132.733 369.567 130.609C369.567 128.486 367.846 126.764 365.722 126.764C363.599 126.764 361.877 128.486 361.877 130.609C361.877 132.733 363.599 134.454 365.722 134.454Z" fill="#00A8E8" stroke="#263238" stroke-width="1.02934" stroke-miterlimit="10"/>
<path d="M419.122 130.609C419.124 131.371 418.9 132.115 418.478 132.749C418.056 133.383 417.456 133.877 416.753 134.169C416.05 134.462 415.276 134.538 414.529 134.39C413.783 134.242 413.097 133.876 412.558 133.338C412.02 132.799 411.654 132.113 411.505 131.366C411.357 130.62 411.434 129.846 411.727 129.143C412.019 128.44 412.513 127.839 413.147 127.418C413.781 126.996 414.525 126.772 415.287 126.773C416.303 126.776 417.277 127.181 417.996 127.9C418.715 128.618 419.12 129.593 419.122 130.609V130.609Z" fill="#00A8E8" stroke="#263238" stroke-width="1.02934" stroke-miterlimit="10"/>
<path d="M346.261 144.326L365.722 158.043H457.067L473.331 144.326" stroke="#263238" stroke-width="1.02934" stroke-miterlimit="10"/>
<path d="M399.323 158.043C399.323 158.803 399.097 159.547 398.675 160.179C398.252 160.811 397.652 161.304 396.949 161.595C396.247 161.886 395.474 161.962 394.728 161.814C393.982 161.666 393.297 161.299 392.759 160.762C392.221 160.224 391.855 159.539 391.706 158.793C391.558 158.047 391.634 157.274 391.925 156.571C392.216 155.869 392.709 155.268 393.341 154.846C393.974 154.423 394.717 154.197 395.478 154.197C396.498 154.197 397.476 154.603 398.197 155.324C398.918 156.045 399.323 157.023 399.323 158.043V158.043Z" fill="#00A8E8" stroke="#263238" stroke-width="1.02934" stroke-miterlimit="10"/>
<path d="M369.567 158.043C369.567 158.803 369.342 159.547 368.919 160.179C368.497 160.811 367.896 161.304 367.194 161.595C366.491 161.886 365.718 161.962 364.972 161.814C364.226 161.666 363.541 161.299 363.003 160.762C362.465 160.224 362.099 159.539 361.951 158.793C361.802 158.047 361.879 157.274 362.17 156.571C362.461 155.869 362.954 155.268 363.586 154.846C364.218 154.423 364.962 154.197 365.722 154.197C366.742 154.197 367.72 154.603 368.441 155.324C369.162 156.045 369.567 157.023 369.567 158.043V158.043Z" fill="#00A8E8" stroke="#263238" stroke-width="1.02934" stroke-miterlimit="10"/>
<path d="M460.912 158.043C460.912 158.803 460.686 159.547 460.264 160.179C459.841 160.811 459.241 161.304 458.538 161.595C457.836 161.886 457.062 161.962 456.316 161.814C455.571 161.666 454.885 161.299 454.348 160.762C453.81 160.224 453.444 159.539 453.295 158.793C453.147 158.047 453.223 157.274 453.514 156.571C453.805 155.869 454.298 155.268 454.93 154.846C455.563 154.423 456.306 154.197 457.067 154.197C458.086 154.197 459.064 154.603 459.786 155.324C460.507 156.045 460.912 157.023 460.912 158.043Z" fill="#00A8E8" stroke="#263238" stroke-width="1.02934" stroke-miterlimit="10"/>
<path d="M473.331 148.171C475.455 148.171 477.176 146.45 477.176 144.326C477.176 142.202 475.455 140.481 473.331 140.481C471.208 140.481 469.486 142.202 469.486 144.326C469.486 146.45 471.208 148.171 473.331 148.171Z" fill="#00A8E8" stroke="#263238" stroke-width="1.02934" stroke-miterlimit="10"/>
<path d="M350.106 144.326C350.106 145.087 349.881 145.831 349.458 146.463C349.035 147.096 348.434 147.589 347.73 147.879C347.027 148.17 346.254 148.246 345.507 148.097C344.761 147.947 344.076 147.58 343.539 147.042C343.001 146.503 342.636 145.817 342.489 145.07C342.341 144.324 342.419 143.55 342.711 142.848C343.004 142.145 343.498 141.546 344.132 141.124C344.765 140.703 345.51 140.479 346.27 140.481C347.289 140.483 348.264 140.889 348.983 141.61C349.702 142.331 350.106 143.308 350.106 144.326V144.326Z" fill="#00A8E8" stroke="#263238" stroke-width="1.02934" stroke-miterlimit="10"/>
<path d="M234.196 235.417H142.184C136.358 235.417 131.635 240.139 131.635 245.965V337.977C131.635 343.803 136.358 348.526 142.184 348.526H234.196C240.022 348.526 244.744 343.803 244.744 337.977V245.965C244.744 240.139 240.022 235.417 234.196 235.417Z" fill="white" stroke="#263238" stroke-width="1.02934" stroke-miterlimit="10"/>
<path d="M174.045 299.995L159.398 328.472H225.791" stroke="#263238" stroke-width="1.02934" stroke-linecap="round" stroke-linejoin="round"/>
<path d="M225.791 256.974L194.804 277.573L225.791 286.899" stroke="#263238" stroke-width="1.02934" stroke-linecap="round" stroke-linejoin="round"/>
<path d="M233.115 249.65H218.467V264.298H233.115V249.65Z" fill="#00A8E8" stroke="#263238" stroke-width="1.02934" stroke-miterlimit="10"/>
<path d="M233.115 279.575H218.467V294.223H233.115V279.575Z" fill="#00A8E8" stroke="#263238" stroke-width="1.02934" stroke-miterlimit="10"/>
<path d="M202.127 270.249H187.48V284.896H202.127V270.249Z" fill="#00A8E8" stroke="#263238" stroke-width="1.02934" stroke-miterlimit="10"/>
<path d="M181.369 292.672H166.722V307.319H181.369V292.672Z" fill="#00A8E8" stroke="#263238" stroke-width="1.02934" stroke-miterlimit="10"/>
<path d="M166.721 321.139H152.074V335.787H166.721V321.139Z" fill="#00A8E8" stroke="#263238" stroke-width="1.02934" stroke-miterlimit="10"/>
<path d="M233.115 321.139H218.467V335.787H233.115V321.139Z" fill="#00A8E8" stroke="#263238" stroke-width="1.02934" stroke-miterlimit="10"/>
<path d="M180.56 191.089H88.5484C82.7227 191.089 78 195.811 78 201.637V293.649C78 299.475 82.7227 304.198 88.5484 304.198H180.56C186.386 304.198 191.109 299.475 191.109 293.649V201.637C191.109 195.811 186.386 191.089 180.56 191.089Z" fill="white" stroke="#263238" stroke-width="1.02934" stroke-miterlimit="10"/>
<path d="M165.208 202.032H89.968V207.861H165.208V202.032Z" fill="#00A8E8"/>
<path d="M133.44 211.631H89.968V217.46H133.44V211.631Z" fill="#00A8E8"/>
<path d="M115.286 221.23H89.968V227.059H115.286V221.23Z" fill="#00A8E8"/>
<path d="M131.635 230.819H89.968V236.648H131.635V230.819Z" fill="#00A8E8"/>
<path d="M154.923 240.418H89.968V246.247H154.923V240.418Z" fill="#00A8E8"/>
<path d="M133.44 250.008H89.968V255.837H133.44V250.008Z" fill="#00A8E8"/>
<path d="M120.297 259.607H89.968V265.435H120.297V259.607Z" fill="#00A8E8"/>
<path d="M139.072 269.205H89.968V275.034H139.072V269.205Z" fill="#00A8E8"/>
<path d="M149.498 278.795H89.968V284.624H149.498V278.795Z" fill="#00A8E8"/>
<path d="M165.208 288.394H89.968V294.223H165.208V288.394Z" fill="#00A8E8"/>
<path opacity="0.3" d="M165.208 202.032H89.968V207.861H165.208V202.032Z" fill="black"/>
<path opacity="0.3" d="M133.44 211.631H89.968V217.46H133.44V211.631Z" fill="black"/>
<path opacity="0.3" d="M115.286 221.23H89.968V227.059H115.286V221.23Z" fill="black"/>
<path opacity="0.3" d="M131.635 230.819H89.968V236.648H131.635V230.819Z" fill="black"/>
<path opacity="0.3" d="M154.923 240.418H89.968V246.247H154.923V240.418Z" fill="black"/>
<path opacity="0.3" d="M133.44 250.008H89.968V255.837H133.44V250.008Z" fill="black"/>
<path opacity="0.3" d="M120.297 259.607H89.968V265.435H120.297V259.607Z" fill="black"/>
<path opacity="0.3" d="M139.072 269.205H89.968V275.034H139.072V269.205Z" fill="black"/>
<path opacity="0.3" d="M149.498 278.795H89.968V284.624H149.498V278.795Z" fill="black"/>
<path opacity="0.3" d="M165.208 288.394H89.968V294.223H165.208V288.394Z" fill="black"/>
<path d="M138.414 181.17H165.791C167.112 181.17 168.38 181.695 169.314 182.63C170.249 183.564 170.773 184.831 170.773 186.153V191.108H133.431V186.153C133.431 184.831 133.956 183.564 134.89 182.63C135.825 181.695 137.092 181.17 138.414 181.17V181.17Z" fill="white" stroke="#263238" stroke-width="1.02934" stroke-miterlimit="10"/>
<path d="M119.902 181.17H146.96C148.326 181.17 149.637 181.713 150.603 182.679C151.569 183.645 152.112 184.956 152.112 186.322V191.117H114.732V186.322C114.732 185.644 114.865 184.973 115.126 184.346C115.386 183.72 115.767 183.151 116.247 182.673C116.728 182.194 117.298 181.815 117.925 181.557C118.552 181.299 119.224 181.168 119.902 181.17V181.17Z" fill="#00A8E8" stroke="#263238" stroke-width="1.02934" stroke-miterlimit="10"/>
<path d="M99.0969 181.17H126.812C128.09 181.165 129.317 181.667 130.225 182.566C131.133 183.465 131.647 184.687 131.654 185.965V191.089H94.2833V185.965C94.2908 184.692 94.8009 183.474 95.7025 182.576C96.6042 181.678 97.8242 181.173 99.0969 181.17V181.17Z" fill="white" stroke="#263238" stroke-width="1.02934" stroke-miterlimit="10"/>
<path d="M451.473 388.51H472.034" stroke="#263238" stroke-width="1.02934" stroke-linecap="round" stroke-linejoin="round"/>
<path d="M127.583 388.51H440.652" stroke="#263238" stroke-width="1.02934" stroke-linecap="round" stroke-linejoin="round"/>
<path d="M445.832 376.467C445.832 376.467 449.47 373.486 451.21 376.739C452.705 379.56 449.123 382.709 445.033 382.709V385.088C445.033 385.088 453.795 385.323 454.434 377.943C455.074 370.563 445.795 372.603 445.795 372.603L445.832 376.467Z" fill="#00A8E8" stroke="#263238" stroke-width="1.02934" stroke-linecap="round" stroke-linejoin="round"/>
<path d="M445.531 388.463H427.988L425.356 366.435H448.164L445.531 388.463Z" fill="#00A8E8" stroke="#263238" stroke-width="1.02934" stroke-linecap="round" stroke-linejoin="round"/>
<path d="M448.126 365.382H425.393C424.729 365.382 424.19 365.921 424.19 366.586V366.699C424.19 367.363 424.729 367.902 425.393 367.902H448.126C448.791 367.902 449.329 367.363 449.329 366.699V366.586C449.329 365.921 448.791 365.382 448.126 365.382Z" fill="white" stroke="#263238" stroke-width="1.02934" stroke-linecap="round" stroke-linejoin="round"/>
<path d="M433.779 362.985C433.779 362.985 441.846 358.143 439.213 352.587C436.581 347.031 427.678 343.374 427.678 334.724C427.678 327.278 435.594 324.524 440.765 321.562" stroke="#263238" stroke-width="1.02934" stroke-linecap="round" stroke-linejoin="round"/>
<path d="M436.431 326.818C435.378 327.531 434.476 328.445 433.777 329.507C433.078 330.569 432.596 331.759 432.359 333.008C432.121 334.258 432.133 335.541 432.393 336.786C432.652 338.031 433.156 339.212 433.873 340.262" stroke="#263238" stroke-width="1.02934" stroke-linecap="round" stroke-linejoin="round"/>
<path d="M440.821 348.77C442.438 351.873 442.885 355.453 442.081 358.858" stroke="#263238" stroke-width="1.02934" stroke-linecap="round" stroke-linejoin="round"/>
<path d="M224.729 386.686C224.729 386.686 224.362 380.368 218.787 378.14C213.212 375.912 210.232 376.833 197.793 380.18C189.95 382.232 181.917 383.476 173.82 383.894V386.714L224.729 386.686Z" fill="white" stroke="#263238" stroke-width="1.02934" stroke-linecap="round" stroke-linejoin="round"/>
<path d="M224.55 386.686C224.55 386.686 224.917 380.368 230.492 378.14C236.067 375.912 239.038 376.833 251.485 380.18C259.341 382.236 267.387 383.48 275.496 383.894V386.714L224.55 386.686Z" fill="white" stroke="#263238" stroke-width="1.02934" stroke-linecap="round" stroke-linejoin="round"/>
<path d="M277.518 385.567H172.541V387.607H277.518V385.567Z" fill="#263238" stroke="#263238" stroke-width="1.02934" stroke-linecap="round" stroke-linejoin="round"/>
<path d="M227.258 386.573C227.757 385.083 228.566 383.715 229.63 382.558C230.695 381.402 231.991 380.482 233.434 379.861" stroke="#263238" stroke-width="1.02934" stroke-linecap="round" stroke-linejoin="round"/>
<path d="M230.435 386.122C231.177 384.843 232.185 383.739 233.39 382.882C234.595 382.026 235.969 381.438 237.421 381.158C240.89 380.519 244.425 381.713 247.696 383.038C250.968 384.364 256.694 386.122 260.191 386.122" stroke="#263238" stroke-width="1.02934" stroke-linecap="round" stroke-linejoin="round"/>
<path d="M194.08 385.549C197.556 385.173 200.963 384.319 204.205 383.01C206.158 382.093 208.176 381.32 210.241 380.697C212.33 380.082 214.578 380.308 216.502 381.327C217.33 381.866 218.059 382.543 218.655 383.33C219.485 384.378 220.171 385.532 220.695 386.761" stroke="#263238" stroke-width="1.02934" stroke-linecap="round" stroke-linejoin="round"/>
<path d="M213.278 382.709C214.422 382.858 215.479 383.4 216.267 384.242C217.03 385.086 217.696 386.013 218.251 387.006" stroke="#263238" stroke-width="1.02934" stroke-linecap="round" stroke-linejoin="round"/>
</svg>
